<svg width="19" height="19" viewBox="0 0 19 19" fill="none" xmlns="http://www.w3.org/2000/svg">
<path fill-rule="evenodd" clip-rule="evenodd" d="M18.3848 16.2635C18.7753 16.654 18.7753 17.2871 18.3848 17.6777L17.6777 18.3848C17.2871 18.7753 16.654 18.7753 16.2635 18.3848L9.54594 11.6673L2.82843 18.3848C2.43791 18.7753 1.80473 18.7753 1.41421 18.3848L0.707106 17.6777C0.316585 17.2871 0.316585 16.654 0.707106 16.2635L7.42462 9.54594L0.707108 2.82843C0.316587 2.43791 0.316587 1.80473 0.707108 1.41421L1.41421 0.707106C1.80474 0.316585 2.43791 0.316585 2.82843 0.707106L9.54594 7.42462L16.2635 0.707109C16.654 0.316588 17.2871 0.316588 17.6777 0.707109L18.3848 1.41422C18.7753 1.80474 18.7753 2.43791 18.3848 2.82843L11.6673 9.54594L18.3848 16.2635Z" fill="#C4C4C4"/>
</svg>